<?xml version="1.0" standalone="no"?>
<!DOCTYPE svg PUBLIC "-//W3C//DTD SVG 1.1//EN" "http://www.w3.org/Graphics/SVG/1.1/DTD/svg11.dtd">
<svg viewBox="-5 15 25 75" style="background-color:#ffffff00" version="1.1" xmlns="http://www.w3.org/2000/svg" xmlns:xlink="http://www.w3.org/1999/xlink" xml:space="preserve" x="0px" y="0px" width="50px" height="100px" >
    <defs>
        <style type="text/css">
            path,circle,polygon {
                fill:none;
                stroke:#000000;
                stroke-width:2
            }
        </style>
    </defs>
    <path
        d="m 10,55 0,-11 c 3,-0 5,-3 5,-7 0,-0 -0,-1 -0,-2
        l 6,-3 c 0,0 1,0 1,0 2,0 3,-1 3,-3 0,-2 -1,-3 -3,-3 -2,0 -3,1 -3,3 0,0 0,0 0,0
        l -6,3 c -1,-1 -3,-2 -5,-2 -4,0 -7,3 -7,7 0,3 2,6 5,7
        l 0,11"/>
</svg>
