<?xml version="1.0" encoding="utf-8"?>
<!-- Generator: Adobe Illustrator 21.1.0, SVG Export Plug-In . SVG Version: 6.00 Build 0)  -->
<svg version="1.1" id="Layer_1" xmlns="http://www.w3.org/2000/svg" xmlns:xlink="http://www.w3.org/1999/xlink" x="0px" y="0px"
	 viewBox="0 0 124 124" style="enable-background:new 0 0 124 124;" xml:space="preserve">
<title>specific-recombination-site-specification</title>
<path d="M22.4,12.3L6.9,4.1C5.4,3.4,4,5.2,5.4,5.9L21,14.1C22.4,14.9,23.8,13.1,22.4,12.3z"/>
<path d="M6.9,21.9L23,14.3c1.5-0.7,0-2.4-1.5-1.6L5.5,20.2C4,21,5.5,22.6,6.9,21.9z"/>
<path d="M4.5,5v16c0,0.6,0.4,1,1,1s1-0.4,1-1V5c0-0.6-0.4-1-1-1S4.5,4.4,4.5,5z"/>
</svg>
